# xmcd CD database file
#
# Track frame offsets:
#	150
#	13482
#	39960
#	48655
#	66222
#	87885
#	99650
#	112907
#	123145
#	139727
#	153450
#	161997
#	175727
#	191390
#	202322
#
# Disc length: 3010 seconds
#
# Revision: 5
# Processed by: cddbd v1.5PL3 Copyright (c) Steve Scherf et al.
# Submitted via: CDex 1.51
#
DISCID=d00bc00f
DTITLE=Various Artist - Roots Of The Blues CD 2 Delta  Country Blues
DYEAR=2002
DGENRE=Blues
TTITLE0=Mississippi John Hurt - Candy Man
TTITLE1=Rev. Gary Davis - You Got To Move
TTITLE2=Skip James - I'm So Glad
TTITLE3=Son House - Empire State Express
TTITLE4=Bukka White - Aberdeen Mississippi Blues
TTITLE5=Mississippi Fred McDowell - If The River Was Whiskey
TTITLE6=Muddy Waters - I Can't Be Satisfied
TTITLE7=Odetta - Nobody Knows You When You're Down And Out
TTITLE8=Sonny Terry and Browny McGhee - Key To The Highway
TTITLE9=Sleepy John Estes - Clean Up At Home
TTITLE10=Mance Lipscomb - Freddie
TTITLE11=Memphis Slim - How Long
TTITLE12=Robert Pete Williams - Midnight Boogie
TTITLE13=Eddie Boyd and Willie Dixon - Five Long Years
TTITLE14=Skip James - Devil Got My Woman
EXTD=YEAR: 2002
EXTT0=
EXTT1=
EXTT2=
EXTT3=
EXTT4=
EXTT5=
EXTT6=
EXTT7=
EXTT8=
EXTT9=
EXTT10=
EXTT11=
EXTT12=
EXTT13=
EXTT14=
PLAYORDER=
